<svg width="512" height="336" xmlns="http://www.w3.org/2000/svg"><g fill="none"><path d="M503 336H9a9 9 0 01-9-9V9a9 9 0 019-9h494a9 9 0 019 9v318a9 9 0 01-9 9z" fill="#FF4B55"/><path d="M85 53l8 25h27c3 0 5 5 2 7l-21 15 8 26c1 3-3 6-6 4l-21-16-22 16c-3 2-7-1-6-4l8-26-21-15c-3-2-1-7 2-7h27l8-25c1-4 6-4 7 0zm97 6l6 8 9-3c2 0 3 1 2 2l-6 9 6 8c1 1 0 2-2 2l-9-3-7 8c0 1-2 1-2-1V79l-10-3v-3l10-3V60c0-2 2-2 3-1zm-37-25l10 2 4-10c1-1 3-1 3 1l2 10 10 1 1 2-9 5 2 10c0 2-2 3-3 2l-7-7-9 5c-1 0-3-1-2-2l4-9-7-7c-1-1 0-3 1-3zm16 99l-6 9-10-4c-1 0-2 2-1 3l6 8-6 8c-1 1 0 3 1 2l10-3 6 8h2l1-11 9-3v-2l-10-4v-10c0-1-1-2-2-1zm37-23l-11 1-4-9h-2l-3 10-10 2v2l9 5-2 10c0 2 1 2 2 2l8-7 9 5c1 0 2-1 1-2l-4-9 8-7c1-1 0-3-1-3z" fill="#FFE15A"/></g></svg>
